# xmcd
#
# Track frame offsets: 
#        150
#        17546
#        30267
#        47339
#        63670
#        81319
#        105643
#        135816
#        150550
#
# Disc length: 2251 seconds
#
# Revision: 0
# Processed by: cddbd v1.5.2PL0 Copyright (c) Steve Scherf et al.
# Submitted via: ExactAudioCopy v1.3
#
DISCID=5c08c909
DTITLE=Mark A'lleven - The Evolution of... Mark a'lleven
DYEAR=2019
DGENRE=Blues
TTITLE0=Don't Leave Me
TTITLE1=I Want You
TTITLE2=Man on a Wire
TTITLE3=That's What Love'll Do
TTITLE4=Roxanne
TTITLE5=Ain't No Love
TTITLE6=Walking Away (The Biography)
TTITLE7=So Proud
TTITLE8=V.I.P.
EXTD=
EXTT0=
EXTT1=
EXTT2=
EXTT3=
EXTT4=
EXTT5=
EXTT6=
EXTT7=
EXTT8=
PLAYORDER=
